    <svg xmlns="http://www.w3.org/2000/svg" viewBox="0 130 80 30">
      <path fill="none" d="M0 0h80v150H0z"/>
      <path fill="#1919e6" stroke="#1919e6" stroke-width="2" d="m64.895573 138.303926-3.94749 10.61505c-.31982.85885-1.27452 1.29592-2.13302.97645-.8585-.32016-1.29555-1.27415-.97644-2.13301l.00034.00035 2.6319-7.07881c-8.40071 4.96706-15.839977 8.12574-22.13123 8.10212-7.394372-.0235-13.136001-3.90335-16.999189-6.39933-3.868767-2.49951-5.891942-4.98372-5.970593-5.07833-.576246-.71196-.467206-1.75636.244061-2.33331.309033-.25055.680874-.37124 1.04916-.37.480799.002.957749.21183 1.284153.61406l-.000002.00049.0073.008c.151031.18361 2.055898 2.41687 5.514524 4.5813 3.46386 2.16619 8.450719 5.63679 14.881396 5.65913 5.666509.0167 12.50304-2.94177 20.49872-7.67991l-6.93655-2.64436c-.85603-.32609-1.28608-1.28495-.95929-2.14098.25346-.66341.88624-1.07044 1.55677-1.06784.19427.0005.39193.0356.58526.10889l10.83667 4.13204c.8508.32503 1.28089 1.27481.96354 2.12773z"/>
    </svg>